<?xml version="1.0" encoding="UTF-8"?>
<svg width="225px" height="882px" viewBox="0 0 225 882" version="1.1" xmlns="http://www.w3.org/2000/svg" xmlns:xlink="http://www.w3.org/1999/xlink">
    <!-- Generator: Sketch 51.2 (57519) - http://www.bohemiancoding.com/sketch -->
    <title>2-01</title>
    <desc>Created with Sketch.</desc>
    <defs></defs>
    <g id="2-01" stroke="none" stroke-width="1" fill="none" fill-rule="evenodd">
        <g id="Group">
            <polygon id="Fill-3" fill="#352F28" points="100.047 580.035 108.047 580.035 108.047 0 100.047 0"></polygon>
            <path d="M104.836,881.563 C67.615,881.566 30.804,866.529 13.353,828.954 C-29.965,735.668 52.384,635.765 53.223,634.765 L57.622,638.453 C56.807,639.424 -23.211,736.583 18.561,826.535 C40.556,873.906 95.822,883.036 140.82,871.07 C182.541,859.979 222.903,828.414 219.028,782.903 C212.766,709.348 176.709,665.478 159.381,644.395 C154.777,638.793 151.45,634.746 149.763,631.625 L154.813,628.895 C156.236,631.529 159.581,635.598 163.815,640.749 C181.512,662.281 218.334,707.082 224.749,782.415 C228.905,831.242 186.331,864.91 142.294,876.616 C130.265,879.815 117.523,881.563 104.836,881.563" id="Fill-61" fill="#352F28"></path>
            <path d="M145.553,774.311 C151.761,783.544 158.594,788.479 164.63,789.291 C169.736,789.968 173.853,787.371 176.203,781.953 C177.28,779.47 176.575,778.145 175.951,777.366 C172.981,773.652 161.585,771.266 146.323,774.161 C146.067,774.21 145.811,774.259 145.553,774.311 Z M74.775,760.421 C68.156,760.421 61.564,762.126 55.365,765.52 C48.681,769.18 45.557,773.791 46.329,778.852 C47.219,784.682 53.333,790.169 60.552,791.617 C68.645,793.241 76.08,789.589 80.954,781.6 C83.688,777.118 85.852,770.513 87.559,762.566 C83.353,761.135 79.058,760.421 74.775,760.421 Z M116.061,787.486 C110.235,792.221 105.62,798.181 103.368,805.467 C98.961,819.723 103.104,829.203 108.449,833.324 C112.294,836.285 116.849,836.778 120.335,834.606 C125.566,831.345 127.34,822.764 125.079,811.649 C123.271,802.763 120.177,794.583 116.061,787.486 Z M115.613,841.666 C111.965,841.666 108.206,840.383 104.945,837.87 C98.072,832.574 92.61,820.836 97.883,803.772 C100.565,795.093 106.083,788.095 112.971,782.638 C107.497,774.807 100.657,768.645 92.894,764.791 C91.072,772.96 88.764,779.817 85.856,784.588 C79.745,794.609 69.862,799.345 59.424,797.245 C49.803,795.316 41.91,787.944 40.655,779.718 C39.987,775.345 40.652,767.032 52.607,760.486 C64.044,754.224 76.653,753.006 88.666,756.881 C96.318,713.489 92.782,639.931 92.737,639.013 C92.657,637.431 93.877,636.083 95.46,636.004 C97.069,635.945 98.392,637.144 98.469,638.727 C98.66,642.522 102.145,715.13 94.07,758.992 L94.24,759.07 C103.343,763.296 111.331,770.311 117.631,779.304 C123.563,775.467 130.169,772.597 136.703,770.622 C130.67,759.354 125.675,744.102 122.899,724.663 C113.589,659.499 120.533,634.775 120.833,633.755 C121.281,632.234 122.871,631.366 124.397,631.811 C125.917,632.258 126.788,633.854 126.341,635.375 C126.273,635.609 119.492,660.232 128.58,723.85 C131.369,743.37 136.443,758.403 142.387,769.119 C143.35,768.9 144.307,768.701 145.254,768.522 C158.642,765.982 174.709,766.623 180.434,773.781 C182.762,776.691 183.131,780.404 181.47,784.234 C178.109,791.991 171.532,796.008 163.865,794.979 C155.926,793.913 147.201,787.609 139.674,775.729 C133.181,777.561 126.568,780.329 120.724,784.108 C125.303,791.86 128.73,800.799 130.705,810.506 C134.68,830.051 126.901,837.278 123.372,839.477 C121.021,840.943 118.347,841.665 115.613,841.666 Z" id="Fill-62" fill="#352F28"></path>
            <path d="M75.513,556.354 C75.513,556.354 78.383,536.263 100.626,535.546 C122.87,534.828 134.35,539.133 136.503,553.484 C138.655,567.835 75.513,556.354 75.513,556.354" id="Fill-63" fill="#675E50"></path>
            <path d="M79.016,554.04 C85.949,555.18 103.567,557.831 117.317,557.831 C129.9,557.831 132.812,555.585 133.407,554.897 C133.625,554.642 133.737,554.399 133.664,553.91 C132.262,544.565 126.865,538.34 105.08,538.34 C103.677,538.34 102.222,538.365 100.718,538.415 C85.656,538.901 80.598,549.037 79.016,554.04 Z M117.317,563.572 C99.372,563.572 75.986,559.357 74.999,559.178 L72.281,558.683 L72.672,555.948 C72.702,555.724 76.164,533.463 100.533,532.677 C102.1,532.627 103.616,532.6 105.08,532.6 C120.504,532.6 136.637,535.031 139.34,553.058 C139.654,555.143 139.105,557.075 137.755,558.641 C134.858,562.005 128.364,563.572 117.317,563.572 Z" id="Fill-64" fill="#352F28"></path>
            <path d="M57.574,575.728 C57.574,575.728 57.574,558.507 69.055,554.919 C80.535,551.332 140.09,552.767 146.548,558.507 C153.006,564.247 148.701,578.598 148.701,578.598 L57.574,575.728" id="Fill-65" fill="#675E50"></path>
            <path d="M60.64,572.953 L146.48,575.656 C147.418,571.257 148.133,563.757 144.64,560.652 C142.077,558.372 121.508,555.833 96.094,555.833 C83.547,555.833 73.514,556.532 69.911,557.659 C63.047,559.803 61.159,568.44 60.64,572.953 Z M150.815,581.536 L54.704,578.509 L54.704,575.727 C54.704,574.938 54.857,556.349 68.198,552.179 C74.224,550.296 89.714,550.093 96.094,550.093 C97.943,550.093 141.483,550.164 148.455,556.361 C156.061,563.123 151.943,577.774 151.45,579.422 L150.815,581.536 Z" id="Fill-66" fill="#352F28"></path>
            <path d="M54.704,587.926 C54.704,587.926 47.529,574.292 63.315,569.27 C79.1,564.247 148.701,566.4 152.288,571.422 C155.876,576.445 152.288,595.101 152.288,595.101 L54.704,587.926" id="Fill-67" fill="#675E50"></path>
            <path d="M56.68,585.193 L149.913,592.049 C151.147,584.395 151.53,575.826 150.082,573.295 C146.74,571.382 125.004,569.281 100.106,569.281 C82.973,569.281 69.545,570.3 64.185,572.005 C60.195,573.274 57.629,575.224 56.558,577.802 C55.431,580.513 56.1,583.49 56.68,585.193 Z M154.624,598.15 L52.906,590.671 L52.164,589.262 C52.015,588.978 48.536,582.234 51.234,575.656 C52.972,571.418 56.743,568.349 62.444,566.534 C70.937,563.832 91.612,563.541 100.106,563.541 C105.232,563.541 150.311,563.716 154.624,569.755 C158.719,575.488 155.744,592.326 155.106,595.643 L154.624,598.15 Z" id="Fill-68" fill="#352F28"></path>
            <path d="M57.574,605.864 C57.574,605.864 42.506,599.406 51.834,587.208 C61.162,575.01 109.954,586.49 125.74,583.62 C141.526,580.75 165.204,582.185 158.746,600.124 C152.288,618.062 57.574,605.864 57.574,605.864" id="Fill-69" fill="#675E50"></path>
            <path d="M58.371,603.071 C62.239,603.551 91.291,607.045 116.919,607.045 C150.587,607.045 155.378,601.004 156.045,599.151 C157.354,595.516 157.278,592.735 155.813,590.65 C153.44,587.272 147.058,585.336 138.305,585.336 C134.41,585.336 130.242,585.718 126.252,586.444 C120.707,587.455 110.209,586.716 98.773,585.756 C90.463,585.058 81.869,584.335 74.206,584.335 C63.216,584.335 56.456,585.889 54.114,588.951 C52.038,591.666 51.275,594.158 51.845,596.358 C52.712,599.711 56.571,602.195 58.371,603.071 Z M116.919,612.785 C89.164,612.785 57.523,608.751 57.207,608.71 L56.443,608.501 C56.105,608.357 48.144,604.873 46.297,597.834 C45.246,593.827 46.342,589.665 49.554,585.465 C53.137,580.778 60.971,578.595 74.206,578.595 C82.11,578.595 90.826,579.328 99.254,580.035 C110.206,580.958 120.418,581.67 125.226,580.796 C129.548,580.01 134.071,579.595 138.305,579.595 C145.948,579.595 156.005,580.941 160.51,587.35 C163.092,591.024 163.407,595.649 161.446,601.096 C159.64,606.113 153.059,612.785 116.919,612.785 Z" id="Fill-70" fill="#352F28"></path>
            <path d="M53.987,620.214 C53.987,620.214 48.247,608.734 54.704,600.841 C61.162,592.948 146.548,594.383 155.876,598.689 C165.204,602.994 155.876,621.649 155.876,621.649 L53.987,620.214" id="Fill-71" fill="#675E50"></path>
            <path d="M55.912,617.371 L154.052,618.753 C155.73,614.878 158.163,607.7 156.726,603.613 C156.334,602.496 155.681,601.76 154.673,601.295 C151.299,599.737 131.841,598.056 106.288,598.056 C73.4,598.056 58.739,600.821 56.908,602.678 C52.98,607.48 54.795,614.324 55.912,617.371 Z M157.637,624.545 L52.2,623.059 L51.419,621.498 C51.151,620.961 44.935,608.249 52.483,599.023 C57.018,593.479 84.246,592.316 106.288,592.316 C126.82,592.316 151.472,593.495 157.078,596.082 C159.49,597.196 161.242,599.144 162.144,601.717 C164.912,609.607 159.113,621.592 158.443,622.933 L157.637,624.545 Z" id="Fill-72" fill="#352F28"></path>
            <path d="M48.964,636 C48.964,636 39.636,623.085 51.834,613.757 C64.032,604.429 150.136,607.299 158.029,612.322 C165.922,617.344 161.616,625.237 159.464,628.825 C157.311,632.412 48.964,636 48.964,636" id="Fill-73" fill="#675E50"></path>
            <path d="M103,610.515 C71.884,610.515 57.068,613.367 53.577,616.037 C45.597,622.139 48.825,630.047 50.516,633.077 C89.03,631.779 149.698,628.983 157.398,626.675 C160.772,620.775 160.489,617.29 156.487,614.743 C153.713,612.977 132.022,610.515 103,610.515 Z M47.531,638.919 L46.637,637.68 C42.845,632.431 38.687,620.198 50.09,611.477 C57.717,605.645 86.513,604.775 103,604.775 C121.756,604.775 153.701,606.166 159.57,609.9 C164.388,612.966 168.708,618.995 161.924,630.302 C160.964,631.901 158.967,635.229 49.059,638.869 L47.531,638.919 Z" id="Fill-74" fill="#352F28"></path>
            <path d="M48.247,628.107 C39.263,635.709 41.789,640.305 50.399,643.893 C59.01,647.481 148.701,643.893 158.029,643.893 C167.357,643.893 165.922,623.085 160.181,623.085 C154.441,623.085 57.574,620.214 48.247,628.107" id="Fill-75" fill="#675E50"></path>
            <path d="M117.8,625.446 C60.304,625.446 51.446,629.16 50.1,630.298 C45.632,634.079 45.394,636.067 45.499,636.747 C45.623,637.543 46.567,639.187 51.503,641.244 C52.494,641.656 57.26,642.618 80.057,642.618 C100.486,642.618 127.124,641.852 143.04,641.396 C150.585,641.18 156.037,641.023 158.028,641.023 C159.589,641.023 160.722,639.735 161.397,637.194 C162.74,632.133 161.055,626.529 159.975,625.911 C159.563,625.952 157.915,625.922 155.444,625.873 C148.413,625.735 133.781,625.446 117.8,625.446 Z M80.058,648.358 L80.057,648.358 C56.653,648.358 51.324,647.388 49.294,646.542 C45.585,644.996 40.565,642.389 39.828,637.626 C39.26,633.964 41.407,630.134 46.392,625.917 C48.4,624.218 53.733,619.706 117.8,619.706 C133.837,619.706 148.507,619.996 155.557,620.134 C157.969,620.182 159.58,620.214 160.181,620.214 C165.297,620.214 167.628,626.902 167.628,633.116 C167.628,636.444 166.948,639.548 165.715,641.854 C164.021,645.02 161.291,646.763 158.028,646.763 C156.119,646.763 150.703,646.919 143.205,647.134 C127.258,647.591 100.57,648.358 80.058,648.358 Z" id="Fill-76" fill="#352F28"></path>
        </g>
    </g>
</svg>